<svg version="1.1" id="Layer_1" xmlns="http://www.w3.org/2000/svg" xmlns:xlink="http://www.w3.org/1999/xlink" x="0px" y="0px"
	 width="100%" viewBox="0 0 395 388" enable-background="new 0 0 395 388" xml:space="preserve">
<path fill="currentColor" opacity="1.000000" stroke="none" 
	d="
M102.862900,253.999939 
	C102.862900,204.506943 102.860497,155.513947 102.865341,106.520950 
	C102.866119,98.642769 104.540062,96.999947 112.491875,96.997742 
	C120.990662,96.995384 129.508347,97.343132 137.981842,96.880096 
	C144.002914,96.551071 147.694016,99.094124 150.420868,104.006577 
	C157.188736,116.198883 164.024719,128.353394 170.796112,140.543747 
	C179.240967,155.746826 187.626984,170.982620 196.087082,186.177185 
	C198.238083,190.040451 199.730438,190.079086 201.877335,186.229813 
	C215.000504,162.700562 228.041718,139.125626 241.154510,115.590576 
	C243.633881,111.140564 246.404800,106.852654 248.870483,102.395500 
	C251.018143,98.513283 254.078125,96.839500 258.558075,96.939301 
	C267.385773,97.135941 276.220917,96.993866 285.052979,96.998169 
	C293.654938,97.002357 295.628235,98.925697 295.633118,107.404572 
	C295.645477,128.734848 295.637207,150.065140 295.637207,171.395416 
	C295.637207,208.390121 295.640747,245.384842 295.634613,282.379547 
	C295.633179,290.992065 293.645569,293.001556 285.204529,293.002502 
	C275.705902,293.003571 266.207245,293.010620 256.708618,293.000183 
	C249.697159,292.992523 247.113602,290.463898 247.109558,283.468170 
	C247.091217,251.806030 247.101395,220.143890 247.101303,188.481750 
	C247.101303,187.150772 247.101288,185.819809 247.101288,184.488831 
	C246.834000,184.342987 246.566696,184.197159 246.299408,184.051315 
	C243.933075,188.157944 241.468613,192.211594 239.218231,196.380783 
	C231.490509,210.697586 223.816742,225.043625 216.168930,239.403305 
	C213.779266,243.890182 210.415024,246.401062 205.064194,246.053696 
	C201.081558,245.795166 197.046951,245.738571 193.074341,246.064941 
	C187.176651,246.549454 183.848541,243.343231 181.341644,238.695251 
	C172.142899,221.639984 162.977203,204.566910 153.768402,187.517090 
	C153.067947,186.220200 152.127380,185.052963 150.121628,184.201920 
	C150.121628,185.950195 150.121628,187.698471 150.121628,189.446747 
	C150.121628,220.942245 150.126465,252.437729 150.117966,283.933228 
	C150.116013,291.192749 148.300156,292.995697 141.055191,293.000946 
	C131.056625,293.008179 121.057976,293.025909 111.059509,292.993958 
	C105.167763,292.975098 102.922066,290.827301 102.882416,284.995972 
	C102.813293,274.831055 102.862999,264.665344 102.862900,253.999939 
z"/>
<path fill="currentColor" opacity="1.000000" stroke="none" 
	d="
M13.068462,89.999985 
	C13.068493,67.166862 13.339707,44.828579 12.914352,22.503561 
	C12.774592,15.168192 19.188168,8.823568 26.322897,8.885935 
	C68.652588,9.255957 110.987152,9.065949 153.320084,9.071380 
	C160.232864,9.072267 162.916794,11.699234 162.927826,18.470896 
	C162.942749,27.637449 162.953796,36.804123 162.923233,45.970600 
	C162.902695,52.135357 160.097412,54.920647 153.878571,54.924362 
	C126.212173,54.940903 98.545769,54.928108 70.879364,54.933743 
	C63.118809,54.935322 58.938908,59.040966 58.935852,66.699020 
	C58.924881,94.198753 58.934696,121.698494 58.929142,149.198227 
	C58.927692,156.379929 56.365364,158.924149 49.150978,158.929886 
	C40.317734,158.936905 31.484470,158.939575 22.651234,158.928696 
	C15.750371,158.920197 13.076198,156.298019 13.072376,149.499542 
	C13.061323,129.833023 13.068463,110.166504 13.068462,89.999985 
z"/>
<path fill="currentColor" opacity="1.000000" stroke="none" 
	d="
M235.069122,343.441772 
	C235.999222,337.093079 238.265198,335.077881 244.147568,335.074799 
	C271.626099,335.060425 299.104645,335.069641 326.583191,335.067688 
	C335.309937,335.067078 339.067047,331.238007 339.067688,322.344482 
	C339.069641,295.199005 339.065735,268.053558 339.070404,240.908081 
	C339.071655,233.656906 341.606567,231.077362 348.730865,231.070602 
	C357.890381,231.061905 367.050018,231.039291 376.209351,231.079590 
	C382.050110,231.105286 384.918976,233.976456 384.921509,239.849060 
	C384.940063,282.648987 384.941833,325.448883 384.921722,368.248810 
	C384.918121,375.916199 379.955261,380.922516 372.409668,380.924866 
	C329.776306,380.938080 287.142914,380.935089 244.509537,380.927429 
	C237.698654,380.926208 235.079239,378.260986 235.071136,371.370209 
	C235.060349,362.210632 235.068756,353.051056 235.069122,343.441772 
z"/>
</svg>